<?xml version="1.0" encoding="UTF-8" standalone="no" ?>
<!DOCTYPE svg PUBLIC "-//W3C//DTD SVG 1.1//EN" "http://www.w3.org/Graphics/SVG/1.1/DTD/svg11.dtd">
<svg xmlns="http://www.w3.org/2000/svg" xmlns:xlink="http://www.w3.org/1999/xlink" version="1.1" width="1280" height="1024" viewBox="0 0 1280 1024" xml:space="preserve">
<desc>Created with Fabric.js 3.6.3</desc>
<defs>
</defs>
<g transform="matrix(1.9692780337941629 0 0 1.9692780337941629 640.0153846153846 512.0123124187639)" id="background-logo"  >
<rect style="stroke: none; stroke-width: 1; stroke-dasharray: none; stroke-linecap: butt; stroke-dashoffset: 0; stroke-linejoin: miter; stroke-miterlimit: 10; fill: rgb(2,117,216); fill-rule: nonzero; opacity: 1;"  paint-order="stroke"  x="-325" y="-260" rx="0" ry="0" width="650" height="520" />
</g>
<g transform="matrix(1.9692780337941624 0 0 1.9692780337941624 640.0153846153845 722.9356297436864)" id="text-logo-path"  >
<path style="stroke: none; stroke-width: 1; stroke-dasharray: none; stroke-linecap: butt; stroke-dashoffset: 0; stroke-linejoin: miter; stroke-miterlimit: 10; fill: rgb(255,255,255); fill-rule: nonzero; opacity: 1;"  paint-order="stroke"  transform=" translate(-109.95499999999998, 49.59)" d="M 6.18 -2 L 6.18 -2 L 6.18 -97.24 Q 6.18 -99.18 8.17 -99.18 L 8.17 -99.18 L 39.29 -99.18 Q 48.07 -99.18 52.62 -94.63 Q 57.16 -90.09 57.16 -81.31 L 57.16 -81.31 L 57.16 -51.1 Q 57.16 -38.63 48.13 -34.69 L 48.13 -34.69 L 56.67 -2.24 Q 57.22 0 54.92 0 L 54.92 0 L 42.02 0 Q 40.26 0 39.9 -1.76 L 39.9 -1.76 L 31.61 -33.24 L 23.07 -33.24 L 23.07 -2 Q 23.07 -1.09 22.52 -0.54 Q 21.98 0 21.07 0 L 21.07 0 L 8.17 0 Q 7.27 0 6.72 -0.54 Q 6.18 -1.09 6.18 -2 Z M 23.07 -82.83 L 23.07 -49.59 L 35.36 -49.59 Q 40.32 -49.59 40.32 -54.55 L 40.32 -54.55 L 40.32 -77.86 Q 40.32 -82.83 35.36 -82.83 L 35.36 -82.83 L 23.07 -82.83 Z M 69.51 -84.83 L 69.51 -2 Q 69.51 0 71.51 0 L 71.51 0 L 84.4 0 Q 85.31 0 85.86 -0.54 Q 86.4 -1.09 86.4 -2 L 86.4 -2 L 86.4 -84.83 Q 86.4 -85.73 85.86 -86.28 Q 85.31 -86.82 84.4 -86.82 L 84.4 -86.82 L 71.51 -86.82 Q 69.51 -86.82 69.51 -84.83 L 69.51 -84.83 Z M 98.75 -2 L 98.75 -2 L 98.75 -84.83 Q 98.75 -85.73 99.3 -86.28 Q 99.84 -86.82 100.75 -86.82 L 100.75 -86.82 L 110.56 -86.82 Q 112.07 -86.82 112.8 -85.19 L 112.8 -85.19 L 136.11 -37.84 L 136.11 -84.83 Q 136.11 -86.82 138.11 -86.82 L 138.11 -86.82 L 149.73 -86.82 Q 150.64 -86.82 151.19 -86.28 Q 151.73 -85.73 151.73 -84.83 L 151.73 -84.83 L 151.73 -2 Q 151.73 -1.09 151.19 -0.54 Q 150.64 0 149.73 0 L 149.73 0 L 139.92 0 Q 138.41 0 137.68 -1.63 L 137.68 -1.63 L 114.37 -48.98 L 114.37 -2 Q 114.37 0 112.44 0 L 112.44 0 L 100.75 0 Q 99.84 0 99.3 -0.54 Q 98.75 -1.09 98.75 -2 Z M 164.08 -17.86 L 164.08 -17.86 L 164.08 -68.96 Q 164.08 -77.74 168.62 -82.28 Q 173.16 -86.82 181.94 -86.82 L 181.94 -86.82 L 195.87 -86.82 Q 204.65 -86.82 209.19 -82.28 Q 213.73 -77.74 213.73 -68.96 L 213.73 -68.96 L 213.73 -17.86 Q 213.73 -9.08 209.19 -4.54 Q 204.65 0 195.87 0 L 195.87 0 L 181.94 0 Q 173.16 0 168.62 -4.54 Q 164.08 -9.08 164.08 -17.86 Z M 180.25 -65.81 L 180.25 -20.95 Q 180.25 -15.98 185.21 -15.98 L 185.21 -15.98 L 193.14 -15.98 Q 198.11 -15.98 198.11 -20.95 L 198.11 -20.95 L 198.11 -65.81 Q 198.11 -70.78 193.14 -70.78 L 193.14 -70.78 L 185.21 -70.78 Q 180.25 -70.78 180.25 -65.81 L 180.25 -65.81 Z" stroke-linecap="round" />
</g>
<g transform="matrix(1.5715356790298718 0 0 1.5715356790298718 640.0153846153845 346.7991295050718)" id="logo-logo"  >
<g style=""  paint-order="stroke"   >
		<g transform="matrix(0.569 0 0 -0.569 -0.00314499999990403 -2.842171e-14)"  >
<path style="stroke: none; stroke-width: 1; stroke-dasharray: none; stroke-linecap: butt; stroke-dashoffset: 0; stroke-linejoin: miter; stroke-miterlimit: 10; fill: rgb(255,255,255); fill-rule: nonzero; opacity: 1;"  paint-order="stroke"  transform=" translate(-1624.9950000000003, -1423.1457814246432)" d="m 1397.91 1506.09 c -5.34 0 -9.67 -4.33 -9.67 -9.66 v -264.14 c 0 -5.33 4.33 -9.66 9.67 -9.66 h 454.18 c 5.33 0 9.67 4.33 9.67 9.66 v 264.14 c 0 5.33 -4.34 9.66 -9.67 9.66 h -57.99 c -4.65 0 -9.02 2.24 -11.76 6.02 c -2.71 3.78 -3.45 8.64 -1.97 13.07 c 9.61 28.84 8.54 52.65 4.43 70.17 c -22.38 -51.9 -70.21 -85.03 -72.73 -86.74 c -2.4 -1.64 -5.25 -2.52 -8.16 -2.52 h -306 z m 454.18 -312.46 h -454.18 c -21.32 0 -38.66 17.35 -38.66 38.66 v 264.14 c 0 21.32 17.34 38.66 38.66 38.66 h 301.25 c 13.54 10.3 62.68 51.2 67.64 104.42 c 0.54 5.85 4.57 10.79 10.19 12.51 c 5.59 1.73 11.72 -0.11 15.43 -4.66 c 1.58 -1.91 35.45 -44.21 20.71 -112.27 h 38.96 c 21.33 0 38.65 -17.34 38.65 -38.66 v -264.14 c 0 -21.31 -17.32 -38.66 -38.65 -38.66 v 0" stroke-linecap="round" />
</g>
		<g transform="matrix(0.569 0 0 -0.569 6.2733550000001514 -17.54310000000001)"  >
<path style="stroke: none; stroke-width: 1; stroke-dasharray: none; stroke-linecap: butt; stroke-dashoffset: 0; stroke-linejoin: miter; stroke-miterlimit: 10; fill: rgb(255,255,255); fill-rule: nonzero; opacity: 1;"  paint-order="stroke"  transform=" translate(-1636.025, -1453.975)" d="m 1666.84 1453.29 h -8.29 c -0.44 -7.57 -3.14 -13.73 -8.04 -18.5 c -4.92 -4.77 -11.02 -7.15 -18.28 -7.15 c -7.65 0 -14.07 2.55 -19.25 7.66 c -5.18 5.11 -7.77 11.44 -7.77 19.01 c 0 7.34 2.62 13.51 7.83 18.5 c 5.22 4.99 11.7 7.5 19.4 7.5 c 8.03 0 15.14 -2.45 21.35 -7.33 c 6.21 -4.87 10.57 -11.45 13.05 -19.69" stroke-linecap="round" />
</g>
		<g transform="matrix(0.569 0 0 -0.569 86.1440550000001 71.47779999999986)"  >
<path style="stroke: none; stroke-width: 1; stroke-dasharray: none; stroke-linecap: butt; stroke-dashoffset: 0; stroke-linejoin: miter; stroke-miterlimit: 10; fill: rgb(255,255,255); fill-rule: nonzero; opacity: 1;"  paint-order="stroke"  transform=" translate(-1776.385, -1297.5349999999999)" d="m 1876.25 1283.04 h -199.73 c -7.98 0 -14.49 6.49 -14.49 14.49 c 0 8 6.51 14.5 14.49 14.5 h 199.73 c 8.01 0 14.49 -6.5 14.49 -14.5 c 0 -8 -6.48 -14.49 -14.49 -14.49 v 0" stroke-linecap="round" />
</g>
</g>
</g>
<g transform="matrix(1.9692780337941624 0 0 1.9692780337941624 640.0153846153845 910.9639506039016)" id="tagline-0177c47c-9ef5-4ee5-bf64-f6b9148b2bd6-logo-path"  >
<path style="stroke: none; stroke-width: 0; stroke-dasharray: none; stroke-linecap: butt; stroke-dashoffset: 0; stroke-linejoin: miter; stroke-miterlimit: 4; fill: rgb(187,196,196); fill-rule: nonzero; opacity: 1;"  paint-order="stroke"  transform=" translate(-153.55, 11.979999999999999)" d="M 1.49 -4.32 L 1.49 -4.32 L 1.49 -19.67 Q 1.49 -21.8 2.61 -22.9 Q 3.72 -23.99 5.84 -23.99 L 5.84 -23.99 L 9.21 -23.99 Q 11.31 -23.99 12.42 -22.89 Q 13.54 -21.78 13.54 -19.67 L 13.54 -19.67 L 13.54 -16.44 Q 13.54 -15.97 13.05 -15.97 L 13.05 -15.97 L 10.05 -15.97 Q 9.57 -15.97 9.57 -16.44 L 9.57 -16.44 L 9.57 -18.84 Q 9.57 -20.04 8.36 -20.04 L 8.36 -20.04 L 6.81 -20.04 Q 5.61 -20.04 5.61 -18.84 L 5.61 -18.84 L 5.61 -5.16 Q 5.61 -3.96 6.81 -3.96 L 6.81 -3.96 L 8.36 -3.96 Q 9.57 -3.96 9.57 -5.16 L 9.57 -5.16 L 9.57 -7.56 Q 9.57 -8.04 10.05 -8.04 L 10.05 -8.04 L 13.05 -8.04 Q 13.27 -8.04 13.4 -7.91 Q 13.54 -7.78 13.54 -7.56 L 13.54 -7.56 L 13.54 -4.32 Q 13.54 -2.21 12.42 -1.11 Q 11.31 0 9.21 0 L 9.21 0 L 5.84 0 Q 3.72 0 2.61 -1.1 Q 1.49 -2.2 1.49 -4.32 Z M 16.52 -4.32 L 16.52 -4.32 L 16.52 -16.68 Q 16.52 -18.81 17.62 -19.91 Q 18.72 -21.01 20.84 -21.01 L 20.84 -21.01 L 24.21 -21.01 Q 26.34 -21.01 27.44 -19.91 Q 28.54 -18.81 28.54 -16.68 L 28.54 -16.68 L 28.54 -4.32 Q 28.54 -2.2 27.44 -1.1 Q 26.34 0 24.21 0 L 24.21 0 L 20.84 0 Q 18.72 0 17.62 -1.1 Q 16.52 -2.2 16.52 -4.32 Z M 20.43 -15.92 L 20.43 -5.07 Q 20.43 -3.87 21.64 -3.87 L 21.64 -3.87 L 23.55 -3.87 Q 24.76 -3.87 24.76 -5.07 L 24.76 -5.07 L 24.76 -15.92 Q 24.76 -17.12 23.55 -17.12 L 23.55 -17.12 L 21.64 -17.12 Q 20.43 -17.12 20.43 -15.92 L 20.43 -15.92 Z M 31.52 -0.48 L 31.52 -0.48 L 31.52 -20.52 Q 31.52 -20.74 31.66 -20.87 Q 31.79 -21.01 32.01 -21.01 L 32.01 -21.01 L 39.21 -21.01 Q 41.34 -21.01 42.44 -19.91 Q 43.54 -18.81 43.54 -16.68 L 43.54 -16.68 L 43.54 -10.65 Q 43.54 -8.03 41.85 -6.99 L 41.85 -6.99 L 43.4 -0.54 Q 43.54 0 42.99 0 L 42.99 0 L 40.05 0 Q 39.62 0 39.54 -0.42 L 39.54 -0.42 L 38.1 -6.33 L 35.43 -6.33 L 35.43 -0.48 Q 35.43 -0.26 35.3 -0.13 Q 35.17 0 34.95 0 L 34.95 0 L 32.01 0 Q 31.79 0 31.66 -0.13 Q 31.52 -0.26 31.52 -0.48 Z M 35.43 -17.12 L 35.43 -10.2 L 38.42 -10.2 Q 39.62 -10.2 39.62 -11.4 L 39.62 -11.4 L 39.62 -15.92 Q 39.62 -17.12 38.42 -17.12 L 38.42 -17.12 L 35.43 -17.12 Z M 46.52 -0.48 L 46.52 -0.48 L 46.52 -20.52 Q 46.52 -20.74 46.66 -20.87 Q 46.79 -21.01 47.01 -21.01 L 47.01 -21.01 L 54.21 -21.01 Q 56.34 -21.01 57.44 -19.91 Q 58.54 -18.81 58.54 -16.68 L 58.54 -16.68 L 58.54 -10.65 Q 58.54 -8.03 56.85 -6.99 L 56.85 -6.99 L 58.4 -0.54 Q 58.54 0 57.99 0 L 57.99 0 L 55.05 0 Q 54.62 0 54.54 -0.42 L 54.54 -0.42 L 53.1 -6.33 L 50.43 -6.33 L 50.43 -0.48 Q 50.43 -0.26 50.3 -0.13 Q 50.17 0 49.95 0 L 49.95 0 L 47.01 0 Q 46.79 0 46.66 -0.13 Q 46.52 -0.26 46.52 -0.48 Z M 50.43 -17.12 L 50.43 -10.2 L 53.42 -10.2 Q 54.62 -10.2 54.62 -11.4 L 54.62 -11.4 L 54.62 -15.92 Q 54.62 -17.12 53.42 -17.12 L 53.42 -17.12 L 50.43 -17.12 Z M 61.52 -0.48 L 61.52 -0.48 L 61.52 -20.52 Q 61.52 -20.74 61.65 -20.87 Q 61.77 -21.01 61.98 -21.01 L 61.98 -21.01 L 73.02 -21.01 Q 73.51 -21.01 73.51 -20.52 L 73.51 -20.52 L 73.51 -17.52 Q 73.51 -17.01 73.02 -17.01 L 73.02 -17.01 L 65.61 -17.01 L 65.61 -12.39 L 71.25 -12.39 Q 71.73 -12.39 71.73 -11.88 L 71.73 -11.88 L 71.73 -8.91 Q 71.73 -8.39 71.25 -8.39 L 71.25 -8.39 L 65.61 -8.39 L 65.61 -3.96 L 73.02 -3.96 Q 73.3 -3.96 73.4 -3.85 Q 73.51 -3.75 73.51 -3.49 L 73.51 -3.49 L 73.51 -0.48 Q 73.51 0 73.02 0 L 73.02 0 L 61.98 0 Q 61.77 0 61.65 -0.13 Q 61.52 -0.26 61.52 -0.48 Z M 75.59 -4.32 L 75.59 -4.32 L 75.59 -6.27 Q 75.59 -6.75 76.07 -6.75 L 76.07 -6.75 L 79.1 -6.75 Q 79.58 -6.75 79.58 -6.27 L 79.58 -6.27 L 79.58 -5.01 Q 79.58 -3.81 80.79 -3.81 L 80.79 -3.81 L 82.4 -3.81 Q 83.6 -3.81 83.6 -5.01 L 83.6 -5.01 L 83.6 -8.04 L 76.41 -10.39 Q 75.59 -10.65 75.59 -11.48 L 75.59 -11.48 L 75.59 -16.68 Q 75.59 -18.79 76.7 -19.9 Q 77.81 -21.01 79.91 -21.01 L 79.91 -21.01 L 83.28 -21.01 Q 85.4 -21.01 86.5 -19.91 Q 87.6 -18.81 87.6 -16.68 L 87.6 -16.68 L 87.6 -14.71 Q 87.6 -14.22 87.11 -14.22 L 87.11 -14.22 L 84.08 -14.22 Q 83.86 -14.22 83.73 -14.36 Q 83.6 -14.49 83.6 -14.71 L 83.6 -14.71 L 83.6 -15.97 Q 83.6 -17.15 82.4 -17.15 L 82.4 -17.15 L 80.76 -17.15 Q 80.19 -17.15 79.87 -16.85 Q 79.56 -16.54 79.56 -15.97 L 79.56 -15.97 L 79.56 -13.4 L 86.81 -11.07 Q 87.6 -10.8 87.6 -9.96 L 87.6 -9.96 L 87.6 -4.32 Q 87.6 -2.2 86.5 -1.1 Q 85.4 0 83.28 0 L 83.28 0 L 79.91 0 Q 77.81 0 76.7 -1.11 Q 75.59 -2.21 75.59 -4.32 Z M 90.59 -0.48 L 90.59 -0.48 L 90.59 -20.52 Q 90.59 -20.74 90.72 -20.87 Q 90.85 -21.01 91.07 -21.01 L 91.07 -21.01 L 98.28 -21.01 Q 100.4 -21.01 101.5 -19.91 Q 102.6 -18.81 102.6 -16.68 L 102.6 -16.68 L 102.6 -10.8 Q 102.6 -8.7 101.5 -7.6 Q 100.4 -6.49 98.28 -6.47 L 98.28 -6.47 L 94.5 -6.45 L 94.5 -0.45 Q 94.5 0.03 94.01 0.03 L 94.01 0.03 L 91.07 0 Q 90.85 0 90.72 -0.13 Q 90.59 -0.26 90.59 -0.48 Z M 94.5 -17.09 L 94.5 -10.33 L 97.49 -10.36 Q 98.69 -10.36 98.69 -11.54 L 98.69 -11.54 L 98.69 -15.92 Q 98.69 -17.12 97.49 -17.12 L 97.49 -17.12 L 94.5 -17.09 Z M 105.29 -4.32 L 105.29 -4.32 L 105.29 -16.68 Q 105.29 -18.81 106.39 -19.91 Q 107.49 -21.01 109.61 -21.01 L 109.61 -21.01 L 112.98 -21.01 Q 115.11 -21.01 116.21 -19.91 Q 117.3 -18.81 117.3 -16.68 L 117.3 -16.68 L 117.3 -4.32 Q 117.3 -2.2 116.21 -1.1 Q 115.11 0 112.98 0 L 112.98 0 L 109.61 0 Q 107.49 0 106.39 -1.1 Q 105.29 -2.2 105.29 -4.32 Z M 109.2 -15.92 L 109.2 -5.07 Q 109.2 -3.87 110.41 -3.87 L 110.41 -3.87 L 112.32 -3.87 Q 113.53 -3.87 113.53 -5.07 L 113.53 -5.07 L 113.53 -15.92 Q 113.53 -17.12 112.32 -17.12 L 112.32 -17.12 L 110.41 -17.12 Q 109.2 -17.12 109.2 -15.92 L 109.2 -15.92 Z M 120.29 -0.48 L 120.29 -0.48 L 120.29 -20.52 Q 120.29 -20.74 120.42 -20.87 Q 120.56 -21.01 120.78 -21.01 L 120.78 -21.01 L 123.15 -21.01 Q 123.52 -21.01 123.69 -20.61 L 123.69 -20.61 L 129.33 -9.16 L 129.33 -20.52 Q 129.33 -21.01 129.81 -21.01 L 129.81 -21.01 L 132.63 -21.01 Q 132.85 -21.01 132.98 -20.87 Q 133.11 -20.74 133.11 -20.52 L 133.11 -20.52 L 133.11 -0.48 Q 133.11 -0.26 132.98 -0.13 Q 132.85 0 132.63 0 L 132.63 0 L 130.25 0 Q 129.89 0 129.71 -0.4 L 129.71 -0.4 L 124.07 -11.85 L 124.07 -0.48 Q 124.07 0 123.6 0 L 123.6 0 L 120.78 0 Q 120.56 0 120.42 -0.13 Q 120.29 -0.26 120.29 -0.48 Z M 136.1 -0.48 L 136.1 -0.48 L 136.1 -20.52 Q 136.1 -21.01 136.58 -21.01 L 136.58 -21.01 L 143.79 -21.01 Q 145.91 -21.01 147.01 -19.89 Q 148.11 -18.78 148.11 -16.66 L 148.11 -16.66 L 148.11 -4.32 Q 148.11 -2.2 147.01 -1.1 Q 145.91 0 143.79 0 L 143.79 0 L 136.58 0 Q 136.1 0 136.1 -0.48 Z M 140.19 -17.04 L 140.19 -3.96 L 142.94 -3.96 Q 144.14 -3.96 144.14 -5.16 L 144.14 -5.16 L 144.14 -15.81 Q 144.14 -17.04 142.94 -17.04 L 142.94 -17.04 L 140.19 -17.04 Z M 151.1 -0.48 L 151.1 -0.48 L 151.1 -20.52 Q 151.1 -20.74 151.22 -20.87 Q 151.35 -21.01 151.55 -21.01 L 151.55 -21.01 L 162.6 -21.01 Q 163.08 -21.01 163.08 -20.52 L 163.08 -20.52 L 163.08 -17.52 Q 163.08 -17.01 162.6 -17.01 L 162.6 -17.01 L 155.19 -17.01 L 155.19 -12.39 L 160.83 -12.39 Q 161.31 -12.39 161.31 -11.88 L 161.31 -11.88 L 161.31 -8.91 Q 161.31 -8.39 160.83 -8.39 L 160.83 -8.39 L 155.19 -8.39 L 155.19 -3.96 L 162.6 -3.96 Q 162.88 -3.96 162.98 -3.85 Q 163.08 -3.75 163.08 -3.49 L 163.08 -3.49 L 163.08 -0.48 Q 163.08 0 162.6 0 L 162.6 0 L 151.55 0 Q 151.35 0 151.22 -0.13 Q 151.1 -0.26 151.1 -0.48 Z M 166.05 -0.48 L 166.05 -0.48 L 166.05 -20.52 Q 166.05 -20.74 166.19 -20.87 Q 166.32 -21.01 166.54 -21.01 L 166.54 -21.01 L 168.91 -21.01 Q 169.28 -21.01 169.45 -20.61 L 169.45 -20.61 L 175.09 -9.16 L 175.09 -20.52 Q 175.09 -21.01 175.58 -21.01 L 175.58 -21.01 L 178.39 -21.01 Q 178.61 -21.01 178.74 -20.87 Q 178.87 -20.74 178.87 -20.52 L 178.87 -20.52 L 178.87 -0.48 Q 178.87 -0.26 178.74 -0.13 Q 178.61 0 178.39 0 L 178.39 0 L 176.02 0 Q 175.65 0 175.47 -0.4 L 175.47 -0.4 L 169.83 -11.85 L 169.83 -0.48 Q 169.83 0 169.37 0 L 169.37 0 L 166.54 0 Q 166.32 0 166.19 -0.13 Q 166.05 -0.26 166.05 -0.48 Z M 181.86 -4.32 L 181.86 -4.32 L 181.86 -16.68 Q 181.86 -18.81 182.97 -19.91 Q 184.09 -21.01 186.21 -21.01 L 186.21 -21.01 L 189.58 -21.01 Q 191.67 -21.01 192.79 -19.9 Q 193.9 -18.79 193.9 -16.68 L 193.9 -16.68 L 193.9 -13.45 Q 193.9 -13.23 193.77 -13.1 Q 193.64 -12.96 193.42 -12.96 L 193.42 -12.96 L 190.59 -12.96 Q 190.12 -12.96 190.12 -13.45 L 190.12 -13.45 L 190.12 -15.89 Q 190.12 -17.09 188.92 -17.09 L 188.92 -17.09 L 187 -17.09 Q 185.8 -17.09 185.8 -15.89 L 185.8 -15.89 L 185.8 -5.01 Q 185.8 -3.81 187 -3.81 L 187 -3.81 L 188.92 -3.81 Q 190.12 -3.81 190.12 -5.01 L 190.12 -5.01 L 190.12 -7.56 Q 190.12 -8.04 190.59 -8.04 L 190.59 -8.04 L 193.42 -8.04 Q 193.64 -8.04 193.77 -7.91 Q 193.9 -7.78 193.9 -7.56 L 193.9 -7.56 L 193.9 -4.32 Q 193.9 -2.21 192.79 -1.11 Q 191.67 0 189.58 0 L 189.58 0 L 186.21 0 Q 184.09 0 182.97 -1.1 Q 181.86 -2.2 181.86 -4.32 Z M 196.89 -0.48 L 196.89 -0.48 L 196.89 -20.52 Q 196.89 -20.74 197.01 -20.87 Q 197.14 -21.01 197.34 -21.01 L 197.34 -21.01 L 208.39 -21.01 Q 208.87 -21.01 208.87 -20.52 L 208.87 -20.52 L 208.87 -17.52 Q 208.87 -17.01 208.39 -17.01 L 208.39 -17.01 L 200.98 -17.01 L 200.98 -12.39 L 206.62 -12.39 Q 207.1 -12.39 207.1 -11.88 L 207.1 -11.88 L 207.1 -8.91 Q 207.1 -8.39 206.62 -8.39 L 206.62 -8.39 L 200.98 -8.39 L 200.98 -3.96 L 208.39 -3.96 Q 208.67 -3.96 208.77 -3.85 Q 208.87 -3.75 208.87 -3.49 L 208.87 -3.49 L 208.87 -0.48 Q 208.87 0 208.39 0 L 208.39 0 L 197.34 0 Q 197.14 0 197.01 -0.13 Q 196.89 -0.26 196.89 -0.48 Z M 219.35 -4.32 L 219.35 -4.32 L 219.35 -16.68 Q 219.35 -18.81 220.46 -19.91 Q 221.57 -21.01 223.7 -21.01 L 223.7 -21.01 L 227.07 -21.01 Q 229.16 -21.01 230.27 -19.9 Q 231.39 -18.79 231.39 -16.68 L 231.39 -16.68 L 231.39 -13.45 Q 231.39 -13.23 231.25 -13.1 Q 231.12 -12.96 230.9 -12.96 L 230.9 -12.96 L 228.08 -12.96 Q 227.61 -12.96 227.61 -13.45 L 227.61 -13.45 L 227.61 -15.89 Q 227.61 -17.09 226.41 -17.09 L 226.41 -17.09 L 224.49 -17.09 Q 223.29 -17.09 223.29 -15.89 L 223.29 -15.89 L 223.29 -5.01 Q 223.29 -3.81 224.49 -3.81 L 224.49 -3.81 L 226.41 -3.81 Q 227.61 -3.81 227.61 -5.01 L 227.61 -5.01 L 227.61 -7.56 Q 227.61 -8.04 228.08 -8.04 L 228.08 -8.04 L 230.9 -8.04 Q 231.12 -8.04 231.25 -7.91 Q 231.39 -7.78 231.39 -7.56 L 231.39 -7.56 L 231.39 -4.32 Q 231.39 -2.21 230.27 -1.11 Q 229.16 0 227.07 0 L 227.07 0 L 223.7 0 Q 221.57 0 220.46 -1.1 Q 219.35 -2.2 219.35 -4.32 Z M 234.38 -0.48 L 234.38 -0.48 L 234.38 -20.52 Q 234.38 -20.74 234.5 -20.87 Q 234.62 -21.01 234.83 -21.01 L 234.83 -21.01 L 245.87 -21.01 Q 246.36 -21.01 246.36 -20.52 L 246.36 -20.52 L 246.36 -17.52 Q 246.36 -17.01 245.87 -17.01 L 245.87 -17.01 L 238.46 -17.01 L 238.46 -12.39 L 244.1 -12.39 Q 244.58 -12.39 244.58 -11.88 L 244.58 -11.88 L 244.58 -8.91 Q 244.58 -8.39 244.1 -8.39 L 244.1 -8.39 L 238.46 -8.39 L 238.46 -3.96 L 245.87 -3.96 Q 246.15 -3.96 246.25 -3.85 Q 246.36 -3.75 246.36 -3.49 L 246.36 -3.49 L 246.36 -0.48 Q 246.36 0 245.87 0 L 245.87 0 L 234.83 0 Q 234.62 0 234.5 -0.13 Q 234.38 -0.26 234.38 -0.48 Z M 249.33 -0.48 L 249.33 -0.48 L 249.33 -20.52 Q 249.33 -20.74 249.46 -20.87 Q 249.59 -21.01 249.81 -21.01 L 249.81 -21.01 L 252.19 -21.01 Q 252.55 -21.01 252.73 -20.61 L 252.73 -20.61 L 258.37 -9.16 L 258.37 -20.52 Q 258.37 -21.01 258.85 -21.01 L 258.85 -21.01 L 261.67 -21.01 Q 261.88 -21.01 262.02 -20.87 Q 262.15 -20.74 262.15 -20.52 L 262.15 -20.52 L 262.15 -0.48 Q 262.15 -0.26 262.02 -0.13 Q 261.88 0 261.67 0 L 261.67 0 L 259.29 0 Q 258.93 0 258.75 -0.4 L 258.75 -0.4 L 253.11 -11.85 L 253.11 -0.48 Q 253.11 0 252.64 0 L 252.64 0 L 249.81 0 Q 249.59 0 249.46 -0.13 Q 249.33 -0.26 249.33 -0.48 Z M 264.54 -20.52 L 264.54 -17.52 Q 264.54 -17.3 264.67 -17.17 Q 264.8 -17.04 265.02 -17.04 L 265.02 -17.04 L 268.51 -17.04 L 268.51 -0.48 Q 268.51 0 268.99 0 L 268.99 0 L 272.11 0 Q 272.58 0 272.58 -0.48 L 272.58 -0.48 L 272.58 -17.04 L 276.06 -17.04 Q 276.55 -17.04 276.55 -17.52 L 276.55 -17.52 L 276.55 -20.52 Q 276.55 -21.01 276.06 -21.01 L 276.06 -21.01 L 265.02 -21.01 Q 264.8 -21.01 264.67 -20.87 Q 264.54 -20.74 264.54 -20.52 L 264.54 -20.52 Z M 278.94 -0.48 L 278.94 -0.48 L 278.94 -20.52 Q 278.94 -20.74 279.06 -20.87 Q 279.18 -21.01 279.39 -21.01 L 279.39 -21.01 L 290.43 -21.01 Q 290.92 -21.01 290.92 -20.52 L 290.92 -20.52 L 290.92 -17.52 Q 290.92 -17.01 290.43 -17.01 L 290.43 -17.01 L 283.02 -17.01 L 283.02 -12.39 L 288.66 -12.39 Q 289.15 -12.39 289.15 -11.88 L 289.15 -11.88 L 289.15 -8.91 Q 289.15 -8.39 288.66 -8.39 L 288.66 -8.39 L 283.02 -8.39 L 283.02 -3.96 L 290.43 -3.96 Q 290.71 -3.96 290.82 -3.85 Q 290.92 -3.75 290.92 -3.49 L 290.92 -3.49 L 290.92 -0.48 Q 290.92 0 290.43 0 L 290.43 0 L 279.39 0 Q 279.18 0 279.06 -0.13 Q 278.94 -0.26 278.94 -0.48 Z M 293.6 -0.48 L 293.6 -0.48 L 293.6 -20.52 Q 293.6 -20.74 293.73 -20.87 Q 293.86 -21.01 294.08 -21.01 L 294.08 -21.01 L 301.29 -21.01 Q 303.41 -21.01 304.51 -19.91 Q 305.61 -18.81 305.61 -16.68 L 305.61 -16.68 L 305.61 -10.65 Q 305.61 -8.03 303.93 -6.99 L 303.93 -6.99 L 305.48 -0.54 Q 305.61 0 305.07 0 L 305.07 0 L 302.12 0 Q 301.7 0 301.61 -0.42 L 301.61 -0.42 L 300.18 -6.33 L 297.51 -6.33 L 297.51 -0.48 Q 297.51 -0.26 297.38 -0.13 Q 297.25 0 297.03 0 L 297.03 0 L 294.08 0 Q 293.86 0 293.73 -0.13 Q 293.6 -0.26 293.6 -0.48 Z M 297.51 -17.12 L 297.51 -10.2 L 300.5 -10.2 Q 301.7 -10.2 301.7 -11.4 L 301.7 -11.4 L 301.7 -15.92 Q 301.7 -17.12 300.5 -17.12 L 300.5 -17.12 L 297.51 -17.12 Z" stroke-linecap="round" />
</g>
</svg>